<svg xmlns="http://www.w3.org/2000/svg" width="946" height="452" fill="none"><path fill="#fff" stroke="#fff" stroke-width="2.267" d="m820.476 425.117 1.133-121.258h33.997v14.733c40.795-31.524 67.178-13.742 80.389 6.801 5.462 8.493 6.94 18.764 7.073 28.86l.932 70.864h-36.264v-68.909c0-3.87-.803-7.764-2.926-11-14.586-22.237-37.292-13.42-46.521.129-2.11 3.098-2.683 6.912-2.683 10.66v69.12h-35.13zm-67.996.987V303.712h33.998v122.392H752.48z"/><path fill="#24FEEE" d="M555.198 308.584c-3.995 24.02-18.124 47.915-37.091 62.729-12.912 10.085-27.385 14.98-43.078 18.182-28.095 5.729-59.605-5.984-80.304-24.841-16.269-14.82-40.755-48.336-40.755-48.336l-33.212 42.037c33.443 59.032 90.879 102.021 161.852 89.142 70.973-12.879 125.253-71.799 129.061-137.93 2.767-48.057-14.5-97.305-54.464-126.05-56.02-40.278-129.717-44.196-187.84-6.656-38.202 24.672-58.681 66.795-83.96 103.428 0 0-7.34 10.5-11.349 7.132-5.901-4.957-.25-16.476 2.776-21.758 7.368-12.861 16.689-24.453 24.197-37.219-15.597-22.462-31.317-45.411-54.719-60.445-26.587-17.081-51.587-22.91-86.38-21.986-25.633.682-48.592 7.421-71.206 19.351l13.476-92.182s123.998-1.558 185.786-1.725L287.245 0 38.021.017 6.35 242.573l78.465 3.999s16.559-24.035 43.859-29.588c8.454-1.72 22.546-1.884 31.679-.369 11.422 1.896 25.897 9.768 32.828 17.855 9.891 11.539 14.53 20.691 18.801 37.093 2.868 11.014 3.135 38.916.473 49.504-6.689 26.607-18.548 43.132-37.841 52.73-10.051 5.002-23.037 7.926-37.913 6.057-30.571-3.842-45.575-26.305-58.49-53.05 0 0-59.819-5.928-77.446-8.621-8.18 65.419 50.615 118.178 107.585 128.383 68.709 12.312 132.651 2.659 183.131-73.42 42.446-56.828 61.508-114.618 106.256-149.495 21.402-16.681 39.683-22.66 66.157-21.636 16.133.624 21.241 1.623 33.834 6.62 30.515 12.109 52.166 38.737 57.56 70.795 1.798 10.687 1.776 17.935-.091 29.154z"/><circle cx="770.612" cy="269.715" r="20.399" fill="#fff"/><path fill="#fff" stroke="#fff" stroke-width="2.267" d="M627.822 426.104V268.581h98.593v27.198H661.82v38.531h47.597v24.932H661.82v66.862h-33.998z"/></svg>